<?xml version="1.0" encoding="UTF-8"?>
<svg id="Layer_2" data-name="Layer 2" xmlns="http://www.w3.org/2000/svg" viewBox="0 0 84 25">
  <defs>
    <style>
      .cls-1 {
        fill: #fff;
      }
    </style>
  </defs>
  <g id="Layer_1-2" data-name="Layer 1">
    <g>
      <path class="cls-1" d="m20.07,1.21H6.1c-.37,0-.64-.02-.79-.07-.15-.04-.23-.27-.23-.69v-.46H1.52v2.71c0,.44.15.82.44,1.14.3.33.67.58,1.12.75.45.17.89.26,1.33.26h8.9c-.05.08-.1.16-.16.25-.44.66-.98,1.48-1.63,2.45-.65.97-1.36,2.04-2.13,3.2-.77,1.17-1.56,2.36-2.37,3.6-.81,1.23-1.6,2.43-2.36,3.61-.76,1.18-1.46,2.25-2.11,3.24-.65.98-1.2,1.8-1.65,2.47-.45.66-.75,1.11-.91,1.32h20.27v-3.66H6.6L20.07,1.21Z"/>
      <path class="cls-1" d="m33.42.23l-10.61,24.77h3.76l2.32-5.59h8.75l2.21,5.59h4.42L33.65.23h-.23Zm-3.18,15.92l3.12-7.53,2.98,7.53h-6.1Z"/>
      <polygon class="cls-1" points="59.65 1.21 53.58 12.95 47.39 1.21 42.68 1.21 51.54 17.29 51.54 25 55.36 25 55.36 17.29 64.36 1.21 59.65 1.21"/>
      <path class="cls-1" d="m79.58,25h4.42L73.39.23h-.23l-10.61,24.77h3.76l2.32-5.59h8.75l2.21,5.59Zm-9.61-8.86l3.12-7.53,2.98,7.53h-6.1Z"/>
    </g>
  </g>
</svg>